<?xml version="1.0" encoding="utf-8"?>
<!-- Generator: Adobe Illustrator 25.2.0, SVG Export Plug-In . SVG Version: 6.00 Build 0)  -->
<svg version="1.1" id="Layer_1" xmlns="http://www.w3.org/2000/svg" xmlns:xlink="http://www.w3.org/1999/xlink" x="0px" y="0px"
   viewBox="0 0 124 45.572" style="enable-background:new 0 0 124 45.572;" xml:space="preserve">
<style type="text/css">
  .st0{fill:#e2231a;}
</style>
<g>
  <g>
    <g>
      <path class="st0" d="M59.883,10.979C54.877,4.882,45.068,0,34.118,0c-6.88,0-13.31,1.928-18.781,5.273l2.321,3.214
        c4.814-2.88,10.442-4.538,16.459-4.538c8.468,0,16.169,3.281,20.299,7.029H59.883z"/>
    </g>
    <path class="st0" d="M75.637,34.215c4.23,3.999,12.064,7.406,20.695,7.406c6.242,0,12.063-1.786,16.993-4.867l2.163,3.303
      c-5.551,3.487-12.116,5.513-19.156,5.513c-11.096,0-21.017-5.013-26.093-11.356H75.637z"/>
    <path class="st0" d="M4.223,18.012v2.714h4.632v3.577H4.223v6.378H0V14.436h9.329v3.577H4.223z"/>
    <path class="st0" d="M15.183,27.104h5.063v3.577H10.96V14.436h4.223V27.104z"/>
    <path class="st0" d="M37.49,22.256c0,5.257-3.771,8.963-8.984,8.963c-5.214,0-8.985-3.706-8.985-8.963
      c0-4.913,4.31-8.36,8.985-8.36C33.181,13.897,37.49,17.344,37.49,22.256z M23.916,22.277c0,2.802,2.069,4.848,4.589,4.848
      c2.521,0,4.589-2.046,4.589-4.848c0-2.24-2.068-4.287-4.589-4.287C25.985,17.99,23.916,20.037,23.916,22.277z"/>
    <path class="st0" d="M43.912,24.928h0.043l3.404-10.492h3.361l3.189,10.492h0.043l3.06-10.492h4.395l-5.193,16.245h-4.309
      l-2.844-9.415h-0.043l-3.189,9.415h-4.288l-4.848-16.245h4.395L43.912,24.928z"/>
    <path class="st0" d="M70.328,18.615c-0.777-0.647-1.767-1.077-2.801-1.077c-0.776,0-1.81,0.452-1.81,1.357
      c0,0.948,1.142,1.314,1.875,1.551l1.077,0.324c2.262,0.668,4.008,1.809,4.008,4.438c0,1.617-0.388,3.275-1.681,4.374
      c-1.271,1.078-2.973,1.53-4.611,1.53c-2.047,0-4.051-0.69-5.71-1.853l1.81-3.404c1.056,0.926,2.306,1.681,3.749,1.681
      c0.991,0,2.047-0.496,2.047-1.638c0-1.184-1.659-1.595-2.564-1.853c-2.65-0.754-4.395-1.443-4.395-4.589
      c0-3.296,2.349-5.451,5.602-5.451c1.638,0,3.641,0.517,5.084,1.336L70.328,18.615z"/>
    <path class="st0" d="M78.428,18.012v2.714h4.761v3.577h-4.761v2.801h5.021v3.577h-9.244V14.436h9.244v3.577H78.428z"/>
    <path class="st0" d="M99.151,30.681h-5.257l-3.986-6.248h-0.043v6.248h-4.223V14.436h6.313c3.21,0,5.644,1.53,5.644,4.998
      c0,2.24-1.248,4.18-3.555,4.588L99.151,30.681z M89.865,21.718h0.409c1.379,0,2.93-0.259,2.93-2.026
      c0-1.766-1.551-2.025-2.93-2.025h-0.409V21.718z"/>
    <path class="st0" d="M105.576,24.303l3.942-9.867h4.589l-6.938,16.245h-3.275l-6.829-16.245h4.588L105.576,24.303z"/>
    <path class="st0" d="M118.979,18.012v2.714h4.761v3.577h-4.761v2.801H124v3.577h-9.244V14.436H124v3.577H118.979z"/>
  </g>
  <path class="st0" d="M117.495,35.371c0-0.741,0.558-1.295,1.273-1.295c0.706,0,1.267,0.554,1.267,1.295
    c0,0.75-0.561,1.304-1.267,1.304C118.052,36.674,117.495,36.121,117.495,35.371z M118.768,36.934c0.852,0,1.581-0.66,1.581-1.563
    c0-0.898-0.729-1.555-1.581-1.555c-0.86,0-1.587,0.657-1.587,1.555C117.181,36.274,117.908,36.934,118.768,36.934z M118.436,35.494
    h0.315l0.475,0.78h0.306l-0.512-0.791c0.265-0.033,0.467-0.174,0.467-0.497c0-0.356-0.21-0.513-0.637-0.513h-0.685v1.801h0.272
    V35.494z M118.436,35.264v-0.561h0.373c0.19,0,0.393,0.042,0.393,0.266c0,0.278-0.207,0.295-0.438,0.295H118.436z"/>
</g>
</svg>
